<?xml version="1.0"?>
<svg xmlns="http://www.w3.org/2000/svg" xmlns:xlink="http://www.w3.org/1999/xlink" xmlns:svgjs="http://svgjs.com/svgjs" version="1.1" width="512" height="512" x="0" y="0" viewBox="0 0 24 24" style="enable-background:new 0 0 512 512" xml:space="preserve"><g><path xmlns="http://www.w3.org/2000/svg" d="M1.327,12.4,4.887,15,3.535,19.187A3.178,3.178,0,0,0,4.719,22.8a3.177,3.177,0,0,0,3.8-.019L12,20.219l3.482,2.559a3.227,3.227,0,0,0,4.983-3.591L19.113,15l3.56-2.6a3.227,3.227,0,0,0-1.9-5.832H16.4L15.073,2.432a3.227,3.227,0,0,0-6.146,0L7.6,6.568H3.231a3.227,3.227,0,0,0-1.9,5.832Z" fill="#ff470a" data-original="#000000"/></g></svg>
