<?xml version="1.0"?>
<svg xmlns="http://www.w3.org/2000/svg" xmlns:xlink="http://www.w3.org/1999/xlink" xmlns:svgjs="http://svgjs.com/svgjs" version="1.1" width="512" height="512" x="0" y="0" viewBox="0 0 24 24" style="enable-background:new 0 0 512 512" xml:space="preserve"><g><path xmlns="http://www.w3.org/2000/svg" d="M8,7H22.5a1.5,1.5,0,0,0,0-3H8A1.5,1.5,0,0,0,8,7Z" fill="#ff470a" data-original="#000000"/><path xmlns="http://www.w3.org/2000/svg" d="M22.5,11H8a1.5,1.5,0,0,0,0,3H22.5a1.5,1.5,0,0,0,0-3Z" fill="#ff470a" data-original="#000000"/><path xmlns="http://www.w3.org/2000/svg" d="M22.5,18H8a1.5,1.5,0,0,0,0,3H22.5a1.5,1.5,0,0,0,0-3Z" fill="#ff470a" data-original="#000000"/><circle xmlns="http://www.w3.org/2000/svg" cx="2.5" cy="5.5" r="2.5" fill="#ff470a" data-original="#000000"/><circle xmlns="http://www.w3.org/2000/svg" cx="2.5" cy="12" r="2.5" fill="#ff470a" data-original="#000000"/><circle xmlns="http://www.w3.org/2000/svg" cx="2.5" cy="19" r="2.5" fill="#ff470a" data-original="#000000"/></g></svg>
